<?xml version="1.0" encoding="iso-8859-1"?>
<!-- Uploaded to: SVG Repo, www.svgrepo.com, Generator: SVG Repo Mixer Tools -->
<svg height="800px" width="800px" version="1.1" id="Layer_1" xmlns="http://www.w3.org/2000/svg" xmlns:xlink="http://www.w3.org/1999/xlink" 
	 viewBox="0 0 512.001 512.001" xml:space="preserve">
<path style="fill:#88DEE0;" d="M34.49,384.754h126.626c0-106.801,86.579-193.38,193.38-193.38V64.747
	C177.762,64.747,34.49,208.019,34.49,384.754z"/>
<path style="fill:#FBAC50;" d="M76.718,384.754h42.228c0-130.091,105.461-235.552,235.552-235.552v-42.227
	C201.084,106.975,76.718,231.341,76.718,384.754z"/>
<path style="fill:#FD387E;" d="M118.944,384.754h42.172c0-106.801,86.579-193.38,193.38-193.38v-42.172
	C224.405,149.202,118.944,254.663,118.944,384.754z"/>
<path style="fill:#F7F8F8;" d="M195.927,376.667c-0.196,0-0.39,0.012-0.585,0.014c0.377-2.177,0.585-4.412,0.585-6.697
	c0-21.533-17.456-38.99-38.99-38.99c-5.796,0-11.291,1.274-16.234,3.543c-8.856-18.462-27.723-31.211-49.567-31.211
	c-30.346,0-54.947,24.6-54.947,54.947c0,3.208,0.291,6.347,0.818,9.404C15.935,371.682,0,390.19,0,412.429
	c0,25.167,20.401,45.568,45.568,45.568c24.902,0,127.9,0,150.359,0s40.665-18.206,40.665-40.665
	C236.592,394.873,218.386,376.667,195.927,376.667z"/>
<path style="fill:#EBECEC;" d="M195.927,376.667c-0.196,0-0.39,0.012-0.585,0.014c0.377-2.177,0.585-4.412,0.585-6.697
	c0-21.533-17.456-38.99-38.99-38.99c-5.796,0-11.291,1.274-16.234,3.543c-4.848-10.108-12.712-18.483-22.407-24.012v147.472
	c32.789,0,66.003,0,77.631,0c22.459,0,40.665-18.206,40.665-40.665C236.593,394.873,218.386,376.667,195.927,376.667z"/>
<path style="fill:#F7F8F8;" d="M471.335,127.345c-0.196,0-0.39,0.012-0.585,0.014c0.377-2.177,0.585-4.412,0.585-6.697
	c0-21.533-17.456-38.99-38.99-38.99c-5.796,0-11.291,1.274-16.234,3.543c-8.857-18.462-27.723-31.211-49.567-31.211
	c-30.346,0-54.946,24.6-54.946,54.947c0,3.208,0.29,6.347,0.818,9.404c-21.072,4.007-37.008,22.515-37.008,44.753
	c0,25.167,20.401,45.568,45.568,45.568c24.902,0,127.9,0,150.359,0c22.459,0,40.665-18.206,40.665-40.665
	C512,145.551,493.794,127.345,471.335,127.345z"/>
<path style="fill:#EBECEC;" d="M471.335,127.345c-0.196,0-0.39,0.012-0.585,0.014c0.377-2.177,0.585-4.412,0.585-6.697
	c0-21.533-17.456-38.99-38.99-38.99c-5.796,0-11.291,1.274-16.234,3.543c-4.848-10.108-12.712-18.483-22.407-24.012v147.472
	c32.789,0,66.003,0,77.631,0c22.459,0,40.665-18.206,40.665-40.665S493.794,127.345,471.335,127.345z"/>
</svg>